<svg width="84" height="31" viewBox="0 0 84 31" fill="none" xmlns="http://www.w3.org/2000/svg">
<path d="M0 15.5H5.94173M30.699 15.5L15.3495 15.5M15.3495 0V6M15.3495 31V25M9.47549 1.17969L11.7493 6.72296M21.2235 29.82L18.9497 24.2767M1.16841 9.56836L6.65785 11.8645M29.5305 21.4315L24.0411 19.1354M1.1685 21.4316L6.65795 19.1355M29.5306 9.56846L24.0412 11.8646M9.47571 29.8203L11.7495 24.277M21.2237 1.18005L18.9499 6.72332M26.2032 4.54004L22.0018 8.78268M4.49575 26.4603L8.69719 22.2177M26.2032 26.46L22.0018 22.2173M4.49575 4.53965L8.69719 8.78229" stroke="white" stroke-width="1.75"/>
<path d="M40.0394 26.5C39.7517 26.5 39.6079 26.3945 39.6079 26.1836C39.6079 26.011 39.7326 25.8959 39.9819 25.8384L40.6435 25.7233C41.0463 25.6466 41.3052 25.5411 41.4202 25.4068C41.5545 25.2726 41.6216 25.0041 41.6216 24.6014V7.6863C41.6216 7.28356 41.5545 7.01507 41.4202 6.88082C41.3052 6.74658 41.0463 6.6411 40.6435 6.56438L39.9819 6.44931C39.7326 6.39178 39.6079 6.27671 39.6079 6.10411C39.6079 5.89315 39.7517 5.78767 40.0394 5.78767H46.0517C47.1833 5.78767 48.1805 6.03699 49.0435 6.53562C49.9065 7.01507 50.5778 7.6863 51.0572 8.54932C51.5367 9.41233 51.7764 10.4096 51.7764 11.5411C51.7764 12.6342 51.5367 13.6027 51.0572 14.4466C50.5778 15.2904 49.9161 15.9521 49.0723 16.4315C48.2285 16.8918 47.2504 17.1219 46.138 17.1219H44.0668C43.7983 17.1219 43.6641 17.2562 43.6641 17.5247V24.4863C43.6641 24.889 43.7408 25.1671 43.8942 25.3205C44.0476 25.4548 44.3928 25.5699 44.9298 25.6658L45.9942 25.8384C46.2052 25.8767 46.3107 25.9822 46.3107 26.1548C46.3107 26.3849 46.1668 26.5 45.8791 26.5H40.0394ZM43.6641 14.8205C43.6641 15.8753 44.3065 16.4027 45.5915 16.4027C46.838 16.4027 47.8161 15.9616 48.5257 15.0795C49.2545 14.1973 49.6189 12.989 49.6189 11.4548C49.6189 9.88219 49.2545 8.66438 48.5257 7.80137C47.797 6.93836 46.7613 6.50685 45.4189 6.50685C44.249 6.50685 43.6641 6.89041 43.6641 7.65753V14.8205Z" fill="white"/>
<path d="M53.4397 26.5C53.1521 26.5 53.0082 26.3945 53.0082 26.1836C53.0082 26.011 53.1329 25.8959 53.3822 25.8384L54.0438 25.7233C54.4466 25.6466 54.7055 25.5411 54.8205 25.4068C54.9548 25.2726 55.0219 25.0041 55.0219 24.6014V7.6863C55.0219 7.28356 54.9548 7.01507 54.8205 6.88082C54.7055 6.74658 54.4466 6.6411 54.0438 6.56438L53.3822 6.44931C53.1329 6.39178 53.0082 6.27671 53.0082 6.10411C53.0082 5.89315 53.1521 5.78767 53.4397 5.78767H59.4521C60.5836 5.78767 61.5808 6.03699 62.4438 6.53562C63.3069 7.01507 63.9781 7.6863 64.4575 8.54932C64.937 9.41233 65.1767 10.4096 65.1767 11.5411C65.1767 12.6342 64.937 13.6027 64.4575 14.4466C63.9781 15.2904 63.3164 15.9521 62.4726 16.4315C61.6288 16.8918 60.6507 17.1219 59.5384 17.1219H57.4671C57.1986 17.1219 57.0644 17.2562 57.0644 17.5247V24.4863C57.0644 24.889 57.1411 25.1671 57.2945 25.3205C57.4479 25.4548 57.7932 25.5699 58.3301 25.6658L59.3945 25.8384C59.6055 25.8767 59.711 25.9822 59.711 26.1548C59.711 26.3849 59.5671 26.5 59.2795 26.5H53.4397ZM57.0644 14.8205C57.0644 15.8753 57.7069 16.4027 58.9918 16.4027C60.2384 16.4027 61.2164 15.9616 61.926 15.0795C62.6548 14.1973 63.0192 12.989 63.0192 11.4548C63.0192 9.88219 62.6548 8.66438 61.926 7.80137C61.1973 6.93836 60.1616 6.50685 58.8192 6.50685C57.6493 6.50685 57.0644 6.89041 57.0644 7.65753V14.8205Z" fill="white"/>
<path d="M64.6238 26.5C64.3362 26.5 64.1923 26.4041 64.1923 26.2123C64.1923 26.0205 64.3266 25.8959 64.5951 25.8384L65.0266 25.7521C65.4101 25.6753 65.6978 25.4932 65.8896 25.2055C66.0814 24.8986 66.2444 24.4767 66.3786 23.9397L70.8375 5.96027C70.8759 5.76849 70.9334 5.64383 71.0101 5.5863C71.106 5.52877 71.1923 5.5 71.2691 5.5C71.3649 5.5 71.4512 5.52877 71.528 5.5863C71.6238 5.64383 71.691 5.76849 71.7293 5.96027L76.2745 24.1986C76.4088 24.7356 76.5622 25.1096 76.7348 25.3205C76.9074 25.5315 77.1759 25.6753 77.5403 25.7521L77.9718 25.8384C78.2403 25.8959 78.3745 26.0205 78.3745 26.2123C78.3745 26.4041 78.2307 26.5 77.943 26.5H73.0238C72.7554 26.5 72.6211 26.3945 72.6211 26.1836C72.6211 25.9726 72.7841 25.8575 73.1101 25.8384L73.6567 25.7808C73.9828 25.7425 74.1841 25.637 74.2608 25.4644C74.3567 25.2918 74.3567 24.9945 74.2608 24.5726L73.1677 20.1137C73.0526 19.6151 72.7362 19.3658 72.2184 19.3658H69.1978C68.6992 19.3658 68.3827 19.6151 68.2485 20.1137L67.2704 23.9685C66.9827 25.0616 67.2704 25.6658 68.1334 25.7808L68.5649 25.8384C68.891 25.8959 69.054 26.011 69.054 26.1836C69.054 26.3945 68.9197 26.5 68.6512 26.5H64.6238ZM69.1115 18.5027H72.2759C72.5827 18.5027 72.7074 18.3397 72.6499 18.0137L70.8088 10.3041H70.6649L68.7375 18.0137C68.68 18.3397 68.8047 18.5027 69.1115 18.5027Z" fill="white"/>
</svg>
