<svg width="32" height="32" viewBox="0 0 32 32" fill="none" xmlns="http://www.w3.org/2000/svg">
<path d="M15.0572 9.72398C15.2868 9.49441 15.5923 9.3565 15.9163 9.33613C16.2404 9.31575 16.5607 9.41431 16.8172 9.61331L16.9426 9.72398L24.9426 17.724L25.0532 17.8493L25.1252 17.952L25.1972 18.08L25.2199 18.128L25.2559 18.2173L25.2986 18.3613L25.3119 18.432L25.3252 18.512L25.3306 18.588L25.3332 18.6666L25.3306 18.7453L25.3239 18.8226L25.3119 18.9026L25.2986 18.972L25.2559 19.116L25.2199 19.2053L25.1266 19.3813L25.0399 19.5013L24.9426 19.6093L24.8172 19.72L24.7146 19.792L24.5866 19.864L24.5386 19.8866L24.4492 19.9226L24.3052 19.9653L24.2346 19.9786L24.1546 19.992L24.0786 19.9973L23.9999 20H7.99991C6.86391 20 6.27058 18.6853 6.95591 17.836L7.05725 17.724L15.0572 9.72398Z" fill="white"/>
</svg>
