<svg width="32" height="32" viewBox="0 0 32 32" fill="none" xmlns="http://www.w3.org/2000/svg">
<path d="M24.0001 12C25.1361 12 25.7294 13.3147 25.0441 14.164L24.9428 14.276L16.9428 22.276C16.7132 22.5056 16.4077 22.6435 16.0837 22.6639C15.7596 22.6842 15.4393 22.5857 15.1828 22.3867L15.0574 22.276L7.05743 14.276L6.94677 14.1507L6.87477 14.048L6.80277 13.92L6.7801 13.872L6.7441 13.7827L6.70143 13.6387L6.6881 13.568L6.67477 13.488L6.66943 13.412V13.2547L6.6761 13.1773L6.6881 13.0973L6.70143 13.028L6.7441 12.884L6.7801 12.7947L6.87343 12.6187L6.9601 12.4987L7.05743 12.3907L7.18277 12.28L7.28543 12.208L7.41343 12.136L7.46143 12.1133L7.55077 12.0773L7.69477 12.0347L7.76543 12.0213L7.84543 12.008L7.92143 12.0027L24.0001 12Z" fill="white"/>
</svg>
