<svg width="16" height="16" viewBox="0 0 16 16" fill="none" xmlns="http://www.w3.org/2000/svg">
<path d="M9.11059 0.952731L13.6106 3.60606L13.6746 3.64806L13.7366 3.70006L13.8073 3.7494C14.0573 3.9367 14.2634 4.17631 14.4113 4.45151C14.5591 4.72671 14.6451 5.03086 14.6633 5.34273L14.6666 5.47873V10.3347C14.6666 11.1181 14.2379 11.8387 13.5846 12.1967L9.04858 15.0647C8.39525 15.4234 7.60459 15.4234 6.91525 15.0434L2.45192 12.2187C2.11392 12.0335 1.83181 11.761 1.63504 11.4297C1.43827 11.0983 1.33405 10.7201 1.33325 10.3347V5.47806C1.33325 4.74073 1.71325 4.0594 2.31725 3.67473L6.95058 0.942731C7.61725 0.574731 8.42659 0.574731 9.11059 0.952731ZM7.99992 5.3334C7.82311 5.3334 7.65354 5.40364 7.52851 5.52866C7.40349 5.65368 7.33325 5.82325 7.33325 6.00006V7.3334H5.99992C5.83663 7.33342 5.67903 7.39337 5.557 7.50188C5.43498 7.61038 5.35702 7.7599 5.33792 7.92207L5.33325 8.00007C5.33325 8.17688 5.40349 8.34645 5.52851 8.47147C5.65354 8.59649 5.82311 8.66673 5.99992 8.66673H7.33325V10.0001C7.33327 10.1634 7.39322 10.321 7.50173 10.443C7.61023 10.565 7.75975 10.643 7.92192 10.6621L7.99992 10.6667C8.17673 10.6667 8.3463 10.5965 8.47132 10.4715C8.59635 10.3464 8.66658 10.1769 8.66658 10.0001V8.66673H9.99992C10.1632 8.66671 10.3208 8.60676 10.4428 8.49826C10.5649 8.38975 10.6428 8.24023 10.6619 8.07806L10.6666 8.00007C10.6666 7.82325 10.5963 7.65368 10.4713 7.52866C10.3463 7.40364 10.1767 7.3334 9.99992 7.3334H8.66658V6.00006C8.66656 5.83678 8.60661 5.67917 8.49811 5.55715C8.3896 5.43513 8.24009 5.35717 8.07792 5.33806L7.99992 5.3334Z" fill="white"/>
</svg>
