<svg width="66" height="66" viewBox="0 0 66 66" fill="none" xmlns="http://www.w3.org/2000/svg">
<foreignObject x="-20" y="-20" width="106" height="106"><div xmlns="http://www.w3.org/1999/xhtml" style="backdrop-filter:blur(10px);clip-path:url(#bgblur_0_6431_164_clip_path);height:100%;width:100%"></div></foreignObject><g data-figma-bg-blur-radius="20">
<path d="M3 33C3 16.4315 16.4315 3 33 3C49.5685 3 63 16.4315 63 33C63 49.5685 49.5685 63 33 63C16.4315 63 3 49.5685 3 33Z" fill="white"/>
<path d="M33 1.5C50.397 1.5 64.5 15.603 64.5 33C64.5 50.397 50.397 64.5 33 64.5C15.603 64.5 1.5 50.397 1.5 33C1.5 15.603 15.603 1.5 33 1.5Z" stroke="white" stroke-opacity="0.3" stroke-width="3"/>
<path d="M26 23.6665V42.3332C25.9999 42.5408 26.0553 42.7446 26.1603 42.9237C26.2653 43.1027 26.4162 43.2505 26.5974 43.3518C26.7786 43.4531 26.9835 43.5042 27.191 43.4999C27.3986 43.4956 27.6012 43.4359 27.778 43.3272L42.9447 33.9938C43.1145 33.8895 43.2548 33.7433 43.3521 33.5693C43.4494 33.3953 43.5005 33.1992 43.5005 32.9998C43.5005 32.8005 43.4494 32.6044 43.3521 32.4304C43.2548 32.2564 43.1145 32.1102 42.9447 32.0058L27.778 22.6725C27.6012 22.5637 27.3986 22.5041 27.191 22.4998C26.9835 22.4954 26.7786 22.5465 26.5974 22.6478C26.4162 22.7491 26.2653 22.8969 26.1603 23.076C26.0553 23.2551 25.9999 23.4589 26 23.6665Z" fill="#2466F2"/>
</g>
<defs>
<clipPath id="bgblur_0_6431_164_clip_path" transform="translate(20 20)"><path d="M3 33C3 16.4315 16.4315 3 33 3C49.5685 3 63 16.4315 63 33C63 49.5685 49.5685 63 33 63C16.4315 63 3 49.5685 3 33Z"/>
</clipPath></defs>
</svg>
