<svg width="28" height="28" viewBox="0 0 28 28" fill="none" xmlns="http://www.w3.org/2000/svg">
<path d="M4.66676 12.8333C4.96412 12.8336 5.25013 12.9474 5.46635 13.1516C5.68258 13.3557 5.8127 13.6347 5.83012 13.9315C5.84755 14.2284 5.75097 14.5207 5.56012 14.7487C5.36926 14.9768 5.09854 15.1233 4.80326 15.1584L4.66676 15.1666H3.50009C3.20273 15.1663 2.91672 15.0524 2.70049 14.8483C2.48427 14.6441 2.35415 14.3651 2.33672 14.0683C2.3193 13.7714 2.41588 13.4791 2.60673 13.2511C2.79759 13.0231 3.06831 12.8765 3.36359 12.8414L3.50009 12.8333H4.66676Z" fill="white"/>
<path d="M14.0001 2.33325C14.2858 2.33329 14.5617 2.4382 14.7752 2.62809C14.9887 2.81797 15.1252 3.07963 15.1586 3.36342L15.1668 3.49992V4.66659C15.1664 4.96394 15.0526 5.24996 14.8484 5.46618C14.6443 5.68241 14.3653 5.81253 14.0685 5.82995C13.7716 5.84738 13.4793 5.7508 13.2513 5.55994C13.0233 5.36909 12.8767 5.09836 12.8416 4.80309L12.8334 4.66659V3.49992C12.8334 3.1905 12.9563 2.89375 13.1751 2.67496C13.3939 2.45617 13.6907 2.33325 14.0001 2.33325Z" fill="white"/>
<path d="M24.5001 12.8333C24.7974 12.8336 25.0835 12.9474 25.2997 13.1516C25.5159 13.3557 25.646 13.6347 25.6635 13.9315C25.6809 14.2284 25.5843 14.5207 25.3934 14.7487C25.2026 14.9768 24.9319 15.1233 24.6366 15.1584L24.5001 15.1666H23.3334C23.0361 15.1663 22.7501 15.0524 22.5338 14.8483C22.3176 14.6441 22.1875 14.3651 22.1701 14.0683C22.1526 13.7714 22.2492 13.4791 22.4401 13.2511C22.6309 13.0231 22.9016 12.8765 23.1969 12.8414L23.3334 12.8333H24.5001Z" fill="white"/>
<path d="M5.70859 5.70842C5.90948 5.50755 6.17677 5.38688 6.4603 5.36905C6.74383 5.35122 7.02412 5.43746 7.24859 5.61159L7.35826 5.70842L8.17492 6.52508C8.38416 6.73504 8.50564 7.01676 8.51469 7.31303C8.52374 7.60931 8.41967 7.89792 8.22363 8.12024C8.02759 8.34257 7.75428 8.48194 7.4592 8.51005C7.16413 8.53816 6.86941 8.4529 6.63492 8.27159L6.52526 8.17475L5.70859 7.35809C5.48987 7.1393 5.36701 6.84261 5.36701 6.53325C5.36701 6.22389 5.48987 5.9272 5.70859 5.70842Z" fill="white"/>
<path d="M20.6419 5.70842C20.8519 5.49918 21.1336 5.3777 21.4299 5.36865C21.7261 5.35961 22.0148 5.46367 22.2371 5.65971C22.4594 5.85575 22.5988 6.12906 22.6269 6.42414C22.655 6.71922 22.5697 7.01393 22.3884 7.24842L22.2916 7.35809L21.4749 8.17475C21.265 8.38399 20.9833 8.50547 20.687 8.51452C20.3907 8.52357 20.1021 8.4195 19.8798 8.22346C19.6574 8.02742 19.5181 7.75411 19.49 7.45903C19.4618 7.16396 19.5471 6.86924 19.7284 6.63475L19.8253 6.52508L20.6419 5.70842Z" fill="white"/>
<path d="M16.3334 20.9999C16.6428 20.9999 16.9396 21.1228 17.1584 21.3416C17.3772 21.5604 17.5001 21.8572 17.5001 22.1666C17.5001 23.0948 17.1313 23.9851 16.475 24.6415C15.8186 25.2978 14.9283 25.6666 14.0001 25.6666C13.0718 25.6666 12.1816 25.2978 11.5252 24.6415C10.8688 23.9851 10.5001 23.0948 10.5001 22.1666C10.5001 21.8808 10.605 21.605 10.7949 21.3915C10.9848 21.1779 11.2465 21.0415 11.5303 21.0081L11.6668 20.9999H16.3334Z" fill="white"/>
<path d="M14.0001 6.99992C15.4693 6.99992 16.9012 7.46218 18.0931 8.32122C19.2849 9.18027 20.1763 10.3925 20.6409 11.7863C21.1055 13.1801 21.1197 14.6847 20.6817 16.0871C20.2436 17.4894 19.3754 18.7184 18.2001 19.5999C18.0393 19.7207 17.85 19.7979 17.6506 19.8239L17.5001 19.8333H10.5001C10.2477 19.8333 10.002 19.7514 9.80009 19.5999C8.62475 18.7184 7.75656 17.4894 7.3185 16.0871C6.88043 14.6847 6.89471 13.1801 7.35931 11.7863C7.8239 10.3925 8.71526 9.18027 9.90712 8.32122C11.099 7.46218 12.5309 6.99992 14.0001 6.99992Z" fill="white"/>
</svg>
