<svg width="28" height="28" viewBox="0 0 28 28" fill="none" xmlns="http://www.w3.org/2000/svg">
<path fill-rule="evenodd" clip-rule="evenodd" d="M13.1249 1.91284C12.6186 1.62356 12.0322 1.45825 11.4073 1.45825C10.0374 1.45825 8.85434 2.25206 8.2908 3.40429C5.65978 3.40429 3.4027 5.53557 3.4027 8.16659C3.4027 8.59459 3.45935 9.0103 3.56579 9.40613C2.27653 10.5165 1.45825 12.1625 1.45825 13.9999C1.45825 15.8373 2.27653 17.4834 3.56579 18.5937C3.45935 18.9895 3.4027 19.4052 3.4027 19.8333C3.4027 22.4643 5.65978 24.5956 8.29081 24.5956C8.85435 25.7478 10.0374 26.5416 11.4073 26.5416C12.0322 26.5416 12.6186 26.3763 13.1249 26.0871V20.9998C13.1249 19.5501 11.9496 18.3748 10.4999 18.3748C10.0167 18.3748 9.62492 17.9832 9.62492 17.4998C9.62492 17.0166 10.0167 16.6248 10.4999 16.6248C11.4848 16.6248 12.3938 16.9503 13.1249 17.4996V10.5002C12.3938 11.0494 11.4848 11.3748 10.4999 11.3748C10.0167 11.3748 9.62492 10.9831 9.62492 10.4998C9.62492 10.0166 10.0167 9.62485 10.4999 9.62485C11.9493 9.62485 13.1242 8.45026 13.1249 7.00107V1.91284ZM14.8749 26.0871C15.3813 26.3763 15.9676 26.5416 16.5925 26.5416C17.9624 26.5416 19.1455 25.7478 19.709 24.5956C22.3401 24.5956 24.5971 22.4643 24.5971 19.8333C24.5971 19.4052 24.5405 18.9895 24.434 18.5937C25.7233 17.4834 26.5416 15.8373 26.5416 13.9999C26.5416 12.1625 25.7233 10.5165 24.434 9.40613C24.5405 9.0103 24.5971 8.59459 24.5971 8.16659C24.5971 5.53557 22.3401 3.40429 19.709 3.40429C19.1455 2.25206 17.9624 1.45825 16.5925 1.45825C15.9676 1.45825 15.3813 1.62357 14.8749 1.91284V6.99986C14.8749 8.44961 16.0502 9.62485 17.4999 9.62485C17.9832 9.62485 18.3749 10.0166 18.3749 10.4998C18.3749 10.9831 17.9832 11.3748 17.4999 11.3748C16.515 11.3748 15.6061 11.0494 14.8749 10.5002V17.4996C15.6061 16.9503 16.515 16.6248 17.4999 16.6248C17.9832 16.6248 18.3749 17.0166 18.3749 17.4998C18.3749 17.9832 17.9832 18.3748 17.4999 18.3748C16.0502 18.3748 14.8749 19.5501 14.8749 20.9998V26.0871Z" fill="white"/>
</svg>
