<svg width="28" height="28" viewBox="0 0 28 28" fill="none" xmlns="http://www.w3.org/2000/svg">
<path fill-rule="evenodd" clip-rule="evenodd" d="M13.9999 1.45825C13.3452 1.45825 12.8118 1.73371 12.3265 2.1041C11.8718 2.45096 11.3703 2.95246 10.7836 3.5392L10.7424 3.58047C10.1419 4.1809 9.61849 4.41722 8.81068 4.41722C8.70944 4.41722 8.58167 4.41363 8.43739 4.40957C8.06752 4.39916 7.58905 4.3857 7.17043 4.4219C6.55808 4.47486 5.79279 4.64242 5.21194 5.22815C4.63555 5.80939 4.47207 6.57154 4.42069 7.18004C4.38568 7.59486 4.39913 8.06976 4.40952 8.437C4.41362 8.58166 4.41725 8.70966 4.41725 8.81066C4.41725 9.61848 4.18091 10.1419 3.58044 10.7424L3.5392 10.7836C2.95246 11.3703 2.45096 11.8718 2.1041 12.3263C1.73373 12.8118 1.45826 13.3452 1.45825 13.9999C1.45826 14.6545 1.73374 15.1879 2.1041 15.6734C2.45103 16.1282 2.95265 16.6297 3.53953 17.2165L3.58049 17.2575C3.96976 17.6467 4.15338 17.8992 4.25746 18.1374C4.35881 18.3694 4.41725 18.6632 4.41725 19.1891C4.41725 19.2904 4.41365 19.4182 4.40959 19.5625C4.39919 19.9323 4.38572 20.4108 4.42192 20.8295C4.47489 21.4417 4.64247 22.2071 5.22821 22.788C5.80946 23.3643 6.5716 23.5277 7.18009 23.5791C7.59488 23.6142 8.06979 23.6007 8.43701 23.5903C8.5817 23.5862 8.70967 23.5826 8.81066 23.5826C9.32541 23.5826 9.61472 23.6344 9.84244 23.7283C10.07 23.8222 10.3133 23.9903 10.6799 24.3569C10.7581 24.4351 10.8612 24.5455 10.98 24.6729C11.2483 24.9605 11.5974 25.3347 11.9233 25.6195C12.4176 26.0516 13.1268 26.5416 13.9999 26.5416C14.8732 26.5416 15.5823 26.0516 16.0767 25.6195C16.4024 25.3347 16.7513 24.9609 17.0195 24.6733C17.1385 24.5457 17.2417 24.4352 17.32 24.3568C17.6865 23.9903 17.9298 23.8222 18.1573 23.7283C18.3851 23.6344 18.6744 23.5826 19.1891 23.5826C19.2902 23.5826 19.4182 23.5862 19.5628 23.5903C19.9301 23.6007 20.4049 23.6142 20.8198 23.5791C21.4282 23.5277 22.1904 23.3643 22.7716 22.788C23.3574 22.2071 23.5249 21.4417 23.5779 20.8295C23.6141 20.4108 23.6007 19.9323 23.5903 19.5625C23.5862 19.4183 23.5826 19.2903 23.5826 19.1891C23.5826 18.6632 23.641 18.3694 23.7424 18.1374C23.8465 17.8992 24.0301 17.6467 24.4193 17.2575L24.4604 17.2165C25.0472 16.6297 25.5489 16.1282 25.8957 15.6734C26.2661 15.1879 26.5416 14.6545 26.5416 13.9999C26.5416 13.3452 26.2661 12.8118 25.8957 12.3263C25.5489 11.8718 25.0474 11.3703 24.4607 10.7837L24.4194 10.7424C24.0301 10.3531 23.8465 10.1007 23.7424 9.86238C23.641 9.63038 23.5826 9.33661 23.5826 8.81066C23.5826 8.70948 23.5862 8.58184 23.5903 8.43767C23.6007 8.0678 23.6141 7.58904 23.5779 7.17043C23.5249 6.55809 23.3574 5.7928 22.7717 5.21197C22.1905 4.63554 21.4283 4.47204 20.8198 4.42066C20.4049 4.38564 19.9301 4.39909 19.5628 4.4095C19.4182 4.41359 19.2902 4.41722 19.1891 4.41722C18.3811 4.41722 17.8577 4.1808 17.2575 3.58047L17.2162 3.53921C16.6295 2.95246 16.128 2.45096 15.6734 2.1041C15.1881 1.73371 14.6547 1.45825 13.9999 1.45825ZM18.3932 11.8337C18.8076 11.3403 18.7437 10.6044 18.2503 10.19C17.7569 9.77552 17.021 9.83952 16.6066 10.3329L12.48 15.2455L11.277 14.1713C10.7963 13.7422 10.0588 13.784 9.62967 14.2646C9.20053 14.7452 9.24228 15.4828 9.72291 15.9119L11.8229 17.7869C12.0582 17.997 12.3687 18.1029 12.6835 18.0803C12.9981 18.0577 13.2904 17.9086 13.4932 17.667L18.3932 11.8337Z" fill="white"/>
</svg>
