<svg width="28" height="28" viewBox="0 0 28 28" fill="none" xmlns="http://www.w3.org/2000/svg">
<path d="M16.6248 5.83325C16.6248 3.417 18.5835 1.45825 20.9998 1.45825C23.416 1.45825 25.3748 3.417 25.3748 5.83325C25.3748 8.2495 23.416 10.2083 20.9998 10.2083C18.5835 10.2083 16.6248 8.2495 16.6248 5.83325Z" fill="white"/>
<path d="M2.62476 22.1666C2.62476 19.7503 4.58351 17.7916 6.99976 17.7916C9.416 17.7916 11.3748 19.7503 11.3748 22.1666C11.3748 24.5829 9.416 26.5416 6.99976 26.5416C4.58351 26.5416 2.62476 24.5829 2.62476 22.1666Z" fill="white"/>
<path fill-rule="evenodd" clip-rule="evenodd" d="M4.66642 9.91659C4.66642 7.01709 7.01693 4.66659 9.91642 4.66659H13.9998C14.6441 4.66659 15.1664 5.18893 15.1664 5.83325C15.1664 6.47758 14.6441 6.99992 13.9998 6.99992H9.91642C8.30559 6.99992 6.99976 8.30576 6.99976 9.91659C6.99976 11.5274 8.30559 12.8333 9.91642 12.8333H18.0831C20.9826 12.8333 23.3331 15.1837 23.3331 18.0833C23.3331 20.9828 20.9826 23.3333 18.0831 23.3333H13.9998C13.3554 23.3333 12.8331 22.8109 12.8331 22.1666C12.8331 21.5222 13.3554 20.9999 13.9998 20.9999H18.0831C19.6939 20.9999 20.9998 19.6941 20.9998 18.0833C20.9998 16.4724 19.6939 15.1666 18.0831 15.1666H9.91642C7.01693 15.1666 4.66642 12.8161 4.66642 9.91659Z" fill="white"/>
</svg>
